# xmcd CD database file
#
# Track frame offsets:
#	150
#	16796
#	28941
#	45460
#	53993
#	62616
#	77582
#	86351
#	105849
#	118071
#	131716
#	141461
#	160433
#	187859
#	199477
#	212077
#	233278
#
# Disc length: 3548 seconds
#
# Revision: 0
# Processed by: cddbd v1.5.1PL2 Copyright (c) Steve Scherf et al.
# Submitted via: CDex 1.51
#
DISCID=df0dda11
DTITLE=S.D.K.Special - SORCERIワン！
DYEAR=2001
DGENRE=Game
TTITLE0=Kings-Tower. - 魔性の島
TTITLE1=Kings-Tower. - ロック・デーモン
TTITLE2=Kings-Tower. - ローラを救え
TTITLE3=Kings-Tower. - ミノタウロス
TTITLE4=Kings-Tower. - エル・ジーナ
TTITLE5=Kings-Tower. - 悪魔に魅入られた花
TTITLE6=Kings-Tower. - ゴーレム
TTITLE7=Kings-Tower. - いとしのジョセフィーヌ
TTITLE8=Kings-Tower. - アース・ウォーム
TTITLE9=Kings-Tower. - ヴァネルバ
TTITLE10=Kings-Tower. - ジョアンナ
TTITLE11=Kings-Tower. - Congratulations!
TTITLE12=Teko - 魔性の島
TTITLE13=H.K - ロック・デーモン
TTITLE14=Kings-Tower. - アース・ウォーム
TTITLE15=Kings-Tower. - Beautiful Day
TTITLE16=DATA TRACK
EXTD=YEAR: 2001
EXTT0=
EXTT1=
EXTT2=
EXTT3=
EXTT4=
EXTT5=
EXTT6=
EXTT7=
EXTT8=
EXTT9=
EXTT10=
EXTT11=
EXTT12=
EXTT13=
EXTT14=
EXTT15=
EXTT16=
PLAYORDER=
